<svg width="230" height="200" viewBox="0 0 230 200" fill="none" xmlns="http://www.w3.org/2000/svg">
<path d="M133.483 62.3082H143.735C153.695 62.3082 163.247 66.2649 170.29 73.3078C177.333 80.3508 181.29 89.903 181.29 99.8632V172.852C181.287 176.922 179.674 180.825 176.802 183.708C173.93 186.591 170.033 188.22 165.963 188.239H111.356C109.333 188.243 107.328 187.848 105.457 187.077C103.586 186.306 101.885 185.173 100.453 183.744C99.0197 182.315 97.8825 180.617 97.1062 178.748C96.3299 176.879 95.9297 174.876 95.9283 172.852V99.8632C95.9283 89.903 99.885 80.3508 106.928 73.3078C113.971 66.2649 123.523 62.3082 133.483 62.3082V62.3082Z" fill="#FF8BA7"/>
<path d="M165.963 189.254H111.356C109.2 189.257 107.064 188.835 105.07 188.012C103.077 187.189 101.265 185.982 99.7378 184.459C98.2109 182.935 96.999 181.126 96.1712 179.135C95.3434 177.144 94.916 175.009 94.9133 172.852V99.8632C94.9133 89.6338 98.9769 79.8234 106.21 72.5901C113.444 65.3568 123.254 61.2932 133.483 61.2932H143.735C153.964 61.2932 163.775 65.3568 171.008 72.5901C178.241 79.8234 182.305 89.6338 182.305 99.8632V172.852C182.3 177.19 180.578 181.35 177.516 184.423C174.455 187.496 170.301 189.233 165.963 189.254V189.254ZM133.483 63.3232C123.792 63.3232 114.498 67.173 107.646 74.0255C100.793 80.8781 96.9433 90.1722 96.9433 99.8632V172.852C96.9487 176.664 98.4661 180.318 101.162 183.012C103.859 185.707 107.514 187.222 111.326 187.224H165.963C169.774 187.222 173.428 185.706 176.123 183.012C178.818 180.317 180.333 176.663 180.336 172.852V99.8632C180.336 90.1722 176.486 80.8781 169.633 74.0255C162.781 67.173 153.487 63.3232 143.796 63.3232H133.483Z" fill="#33272A"/>
<path d="M181.31 107.263H95.9588V152.552H181.31V107.263Z" fill="#FFFFFE"/>
<path d="M181.31 153.567H95.9283C95.6591 153.567 95.401 153.46 95.2106 153.27C95.0203 153.079 94.9133 152.821 94.9133 152.552V107.232C94.9133 106.963 95.0203 106.705 95.2106 106.514C95.401 106.324 95.6591 106.217 95.9283 106.217H181.28C181.549 106.217 181.807 106.324 181.997 106.514C182.188 106.705 182.295 106.963 182.295 107.232V152.521C182.299 152.655 182.276 152.788 182.229 152.912C182.182 153.037 182.11 153.151 182.019 153.248C181.928 153.345 181.818 153.423 181.696 153.478C181.575 153.533 181.443 153.563 181.31 153.567ZM96.9738 151.537H180.295V108.247H96.9433L96.9738 151.537Z" fill="#33272A"/>
<path d="M149.135 22.0128H128.134V47.3066H149.135V22.0128Z" fill="#FFC6C7"/>
<path d="M149.135 48.3622H128.134C127.865 48.3622 127.607 48.2552 127.417 48.0649C127.226 47.8745 127.119 47.6163 127.119 47.3472V21.9722C127.119 21.703 127.226 21.4448 127.417 21.2544C127.607 21.0641 127.865 20.9572 128.134 20.9572H149.135C149.404 20.9572 149.662 21.0641 149.852 21.2544C150.043 21.4448 150.15 21.703 150.15 21.9722V47.3472C150.15 47.6163 150.043 47.8745 149.852 48.0649C149.662 48.2552 149.404 48.3622 149.135 48.3622ZM129.149 46.3322H148.12V22.9872H129.149V46.3322Z" fill="#33272A"/>
<path d="M157.305 26.5802C157.305 26.5802 126.632 22.774 98.0599 29.4425L95.9283 22.9871C95.9283 22.9871 129.748 12.0353 145.755 12.0353C161.761 12.0353 157.305 26.5802 157.305 26.5802Z" fill="#FF8BA7"/>
<path d="M98.0497 30.4576C97.8271 30.4684 97.6071 30.4058 97.4236 30.2792C97.2402 30.1526 97.1035 29.9692 97.0347 29.7572L94.9438 23.2815C94.8605 23.0258 94.8822 22.7474 95.004 22.5076C95.1258 22.2679 95.3378 22.0862 95.5934 22.0026C96.9839 21.5459 129.748 11 145.734 11C150.921 11 154.656 12.4819 156.808 15.3949C160.259 20.0741 158.31 26.5599 158.229 26.8847C158.159 27.1133 158.011 27.3098 157.81 27.4398C157.61 27.5698 157.37 27.6248 157.133 27.5953C156.828 27.5953 126.297 23.8804 98.2628 30.4271C98.1933 30.4461 98.1217 30.4563 98.0497 30.4576V30.4576ZM97.2377 23.6266L98.7399 28.2449C124.176 22.5203 151.297 24.9258 156.534 25.4739C156.889 23.7382 157.437 19.5767 155.225 16.5926C153.469 14.2277 150.292 13.03 145.785 13.03C131.626 13.03 102.871 21.8503 97.2377 23.6266Z" fill="#33272A"/>
<path d="M154.93 47.3065H122.349V64.3078H154.93V47.3065Z" fill="#FF8BA7"/>
<path d="M154.93 65.3228H122.318C122.049 65.3228 121.791 65.2159 121.601 65.0255C121.41 64.8352 121.303 64.577 121.303 64.3078V47.3472C121.303 47.078 121.41 46.8198 121.601 46.6294C121.791 46.4391 122.049 46.3322 122.318 46.3322H154.9C155.169 46.3322 155.427 46.4391 155.618 46.6294C155.808 46.8198 155.915 47.078 155.915 47.3472V64.3484C155.905 64.6053 155.797 64.8488 155.615 65.0297C155.432 65.2105 155.187 65.3153 154.93 65.3228ZM123.364 63.2928H153.915V48.3622H123.333L123.364 63.2928Z" fill="#33272A"/>
<path d="M102.851 63.2015C102.851 73.6763 83.0378 73.6763 83.0378 63.2015C83.0378 52.7267 92.9442 36.507 92.9442 36.507C92.9442 36.507 102.851 52.7267 102.851 63.2015Z" fill="#C3F0CA"/>
<path d="M92.9442 72.0725C90.3191 72.1277 87.7401 71.3767 85.555 69.9207C84.4512 69.1856 83.5494 68.1853 82.9323 67.0114C82.3152 65.8375 82.0025 64.5275 82.0228 63.2014C82.0228 52.5642 91.6653 36.649 92.0815 35.9791C92.172 35.83 92.2993 35.7067 92.4514 35.6211C92.6034 35.5355 92.7749 35.4905 92.9493 35.4905C93.1238 35.4905 93.2953 35.5355 93.4473 35.6211C93.5993 35.7067 93.7267 35.83 93.8171 35.9791C94.2231 36.649 103.866 52.5642 103.866 63.2014C103.866 69.0275 98.3745 72.0725 92.9442 72.0725ZM92.9442 38.5166C90.559 42.7289 84.0528 54.9393 84.0528 63.2014C84.0528 67.9009 88.6609 70.0425 92.9442 70.0425C97.2275 70.0425 101.836 67.9009 101.836 63.2014C101.836 54.9393 95.3396 42.7289 92.9442 38.5166Z" fill="#33272A"/>
<path d="M33.2317 171.289L19.0217 137.134L42.2348 126.182C42.2348 126.182 59.8044 109.607 75.3948 111.972C90.9852 114.337 126.794 119.595 131.433 124.568C136.072 129.542 131.433 133.521 131.433 133.521C133.046 134.303 134.887 134.479 136.62 134.018C139.939 133.358 149.398 124.71 153.641 120.376C158.787 115.119 169.881 118.072 166.258 127.289C162.634 136.505 144.648 154.044 129.728 160.347C114.807 166.65 68.0462 158.317 68.0462 158.317L33.2317 171.289Z" fill="#FFC6C7"/>
<path d="M33.2318 172.304C33.0297 172.305 32.8318 172.245 32.6637 172.133C32.4955 172.021 32.3646 171.861 32.2878 171.674L18.0778 137.52C17.9773 137.278 17.974 137.007 18.0686 136.763C18.1632 136.519 18.3483 136.321 18.5853 136.21L41.6563 125.34C44.9907 122.336 48.5996 119.651 52.4356 117.321C61.0631 112.074 68.838 109.922 75.5471 110.927H75.8618C101.308 114.723 127.901 119.209 132.184 123.797C132.933 124.514 133.526 125.379 133.926 126.336C134.326 127.293 134.524 128.322 134.508 129.359C134.412 130.672 133.947 131.931 133.169 132.993C134.24 133.212 135.345 133.212 136.417 132.993C139.167 132.445 147.917 124.751 152.921 119.646C154.472 118.108 156.486 117.124 158.653 116.845C160.819 116.566 163.017 117.008 164.908 118.103C167.953 120.062 168.785 123.624 167.202 127.634C163.426 137.164 145.237 154.927 130.174 161.291C115.579 167.452 72.4311 160.103 68.1884 159.363L33.6784 172.243C33.5368 172.3 33.3834 172.321 33.2318 172.304V172.304ZM20.2804 137.682L33.79 170.04L67.691 157.404C67.8671 157.355 68.0529 157.355 68.229 157.404C68.6857 157.485 114.848 165.605 129.332 159.494C141.421 154.419 161.01 137.702 165.263 126.964C166.501 123.838 165.963 121.32 163.751 119.859C162.26 119.002 160.529 118.66 158.825 118.886C157.12 119.112 155.538 119.892 154.321 121.107C151.642 123.848 140.822 134.221 136.772 135.033C134.788 135.542 132.687 135.318 130.854 134.404C130.718 134.32 130.604 134.206 130.52 134.069C130.437 133.933 130.386 133.779 130.373 133.62C130.361 133.461 130.385 133.301 130.446 133.153C130.507 133.005 130.601 132.874 130.723 132.77C131.692 131.869 132.298 130.645 132.428 129.329C132.424 128.566 132.263 127.812 131.956 127.113C131.649 126.415 131.201 125.787 130.641 125.269C126.277 120.59 89.3917 115.119 75.5167 113.028H75.1919C60.2714 110.795 43.0468 126.852 42.8743 127.014C42.7966 127.089 42.7075 127.151 42.6104 127.197L20.2804 137.682Z" fill="#33272A"/>
<path d="M119.405 138.697C114.878 138.697 109.062 137.357 102.932 135.946C93.4111 133.754 83.5555 131.48 79.059 134.505C78.9497 134.592 78.8235 134.656 78.6884 134.692C78.5534 134.728 78.4123 134.736 78.2741 134.715C78.1359 134.694 78.0035 134.644 77.8853 134.57C77.7671 134.495 77.6655 134.397 77.587 134.281C77.5085 134.165 77.4547 134.035 77.4291 133.897C77.4034 133.76 77.4064 133.619 77.4379 133.483C77.4693 133.346 77.5286 133.218 77.612 133.106C77.6953 132.994 77.8009 132.9 77.9222 132.83C83.1495 129.308 93.4416 131.673 103.389 133.967C109.956 135.48 116.147 136.901 120.542 136.637C127.87 136.18 130.56 132.912 130.591 132.871C130.673 132.766 130.774 132.678 130.89 132.612C131.007 132.546 131.134 132.503 131.267 132.487C131.399 132.47 131.534 132.48 131.662 132.516C131.791 132.551 131.911 132.611 132.017 132.693C132.122 132.775 132.21 132.877 132.276 132.993C132.342 133.109 132.384 133.237 132.401 133.37C132.417 133.502 132.408 133.636 132.372 133.765C132.337 133.894 132.276 134.014 132.194 134.119C132.062 134.282 128.987 138.179 120.674 138.657C120.288 138.697 119.842 138.697 119.405 138.697Z" fill="#33272A"/>
</svg>
