<svg width="233" height="177" viewBox="0 0 233 177" fill="none" xmlns="http://www.w3.org/2000/svg">
<path d="M202.722 34.6278V138.97C202.71 140.185 202.458 141.386 201.981 142.503C201.504 143.621 200.811 144.633 199.941 145.482C199.071 146.331 198.043 146.999 196.914 147.449C195.785 147.9 194.579 148.122 193.364 148.105H38.3733C37.1018 148.108 35.8425 147.856 34.6707 147.363C33.4988 146.869 32.4383 146.145 31.5525 145.232C29.9217 143.573 29.0101 141.337 29.015 139.01V34.6278C29.0269 33.4127 29.2787 32.212 29.756 31.0945C30.2333 29.9769 30.9266 28.9647 31.7961 28.1159C32.6657 27.2671 33.6944 26.5984 34.8231 26.1483C35.9518 25.6981 37.1583 25.4754 38.3733 25.4928H193.364C194.579 25.4754 195.785 25.6981 196.914 26.1483C198.043 26.5984 199.071 27.2671 199.941 28.1159C200.811 28.9647 201.504 29.9769 201.981 31.0945C202.458 32.212 202.71 33.4127 202.722 34.6278Z" fill="#FF8BA7"/>
<path d="M193.364 149.079H38.3733C36.9661 149.081 35.5728 148.801 34.2757 148.256C32.9786 147.71 31.8041 146.91 30.8217 145.902C29.0117 144.049 27.9989 141.561 28 138.97V34.6278C28.0133 33.2798 28.2922 31.9477 28.821 30.7077C29.3497 29.4676 30.1179 28.3441 31.0814 27.4013C32.0449 26.4585 33.185 25.715 34.4362 25.2133C35.6874 24.7117 37.0253 24.4618 38.3733 24.4778H193.364C194.712 24.4618 196.05 24.7117 197.301 25.2133C198.552 25.715 199.692 26.4585 200.656 27.4013C201.619 28.3441 202.387 29.4676 202.916 30.7077C203.445 31.9477 203.724 33.2798 203.737 34.6278V138.97C203.7 141.685 202.586 144.275 200.641 146.17C198.697 148.066 196.079 149.112 193.364 149.079V149.079ZM38.3733 26.5078C37.2923 26.4931 36.2189 26.6914 35.2146 27.0915C34.2102 27.4916 33.2945 28.0856 32.5197 28.8397C31.745 29.5937 31.1263 30.493 30.6991 31.4861C30.2719 32.4792 30.0446 33.5468 30.03 34.6278V138.97C30.0327 141.034 30.8412 143.015 32.2833 144.491C33.0766 145.302 34.024 145.946 35.0699 146.386C36.1157 146.825 37.2389 147.051 38.3733 147.049H193.364C194.445 147.065 195.519 146.868 196.524 146.468C197.529 146.069 198.445 145.475 199.22 144.72C199.995 143.966 200.614 143.066 201.041 142.073C201.467 141.079 201.694 140.011 201.707 138.929V34.6278C201.693 33.5468 201.465 32.4792 201.038 31.4861C200.611 30.493 199.992 29.5937 199.217 28.8397C198.443 28.0856 197.527 27.4916 196.523 27.0915C195.518 26.6914 194.445 26.4931 193.364 26.5078H38.3733Z" fill="#33272A"/>
<path d="M147.963 172.901H83.7641L90.5545 148.074H141.172L147.963 172.901Z" fill="#FF8BA7"/>
<path d="M147.963 173.916H83.7641C83.6054 173.922 83.4476 173.89 83.3034 173.823C83.1592 173.757 83.0327 173.657 82.934 173.533C82.8353 173.408 82.7671 173.263 82.735 173.107C82.7029 172.952 82.7077 172.791 82.7491 172.637L89.5394 147.8C89.6008 147.581 89.7344 147.388 89.9185 147.254C90.1026 147.119 90.3266 147.051 90.5544 147.059H141.172C141.4 147.051 141.624 147.119 141.808 147.254C141.993 147.388 142.126 147.581 142.187 147.8L148.947 172.668C148.989 172.821 148.994 172.982 148.961 173.138C148.929 173.293 148.861 173.439 148.762 173.563C148.664 173.688 148.537 173.787 148.393 173.854C148.249 173.92 148.091 173.952 147.932 173.947L147.963 173.916ZM85.0937 171.886H146.633L140.401 149.089H91.3258L85.0937 171.886Z" fill="#33272A"/>
<path d="M115.869 138.594C118.049 138.594 119.817 136.827 119.817 134.646C119.817 132.465 118.049 130.698 115.869 130.698C113.688 130.698 111.92 132.465 111.92 134.646C111.92 136.827 113.688 138.594 115.869 138.594Z" fill="#33272A"/>
<path d="M115.869 139.609C114.887 139.609 113.927 139.318 113.111 138.773C112.295 138.227 111.659 137.452 111.283 136.545C110.907 135.638 110.809 134.64 111.001 133.678C111.192 132.715 111.665 131.83 112.359 131.136C113.053 130.442 113.937 129.969 114.9 129.778C115.863 129.586 116.861 129.685 117.768 130.06C118.675 130.436 119.45 131.072 119.995 131.888C120.541 132.705 120.832 133.664 120.832 134.646C120.829 135.962 120.305 137.222 119.375 138.153C118.445 139.083 117.184 139.607 115.869 139.609V139.609ZM115.869 131.713C115.288 131.713 114.721 131.885 114.239 132.207C113.757 132.529 113.381 132.987 113.158 133.523C112.936 134.059 112.878 134.649 112.992 135.218C113.105 135.787 113.384 136.31 113.794 136.72C114.205 137.13 114.727 137.41 115.296 137.523C115.865 137.636 116.455 137.578 116.991 137.356C117.527 137.134 117.985 136.758 118.308 136.276C118.63 135.793 118.802 135.226 118.802 134.646C118.802 133.868 118.493 133.122 117.943 132.572C117.393 132.022 116.647 131.713 115.869 131.713V131.713Z" fill="#33272A"/>
<path d="M202.722 34.1508V122.76H29.015V34.1508C29.0269 32.9357 29.2787 31.7349 29.756 30.6174C30.2333 29.4999 30.9266 28.4877 31.7962 27.6389C32.6657 26.7901 33.6944 26.1214 34.8231 25.6712C35.9518 25.2211 37.1583 24.9983 38.3733 25.0158H193.364C194.579 24.9983 195.785 25.2211 196.914 25.6712C198.043 26.1214 199.071 26.7901 199.941 27.6389C200.811 28.4877 201.504 29.4999 201.981 30.6174C202.458 31.7349 202.71 32.9357 202.722 34.1508Z" fill="#FFC6C7"/>
<path d="M202.722 123.775H29.015C28.7458 123.775 28.4876 123.668 28.2973 123.478C28.1069 123.288 28 123.029 28 122.76V34.1508C28.0133 32.8028 28.2922 31.4707 28.821 30.2306C29.3497 28.9906 30.1179 27.867 31.0814 26.9242C32.0449 25.9814 33.185 25.2379 34.4362 24.7363C35.6874 24.2346 37.0253 23.9847 38.3733 24.0008H193.364C194.712 23.9847 196.05 24.2346 197.301 24.7363C198.552 25.2379 199.692 25.9814 200.656 26.9242C201.619 27.867 202.387 28.9906 202.916 30.2306C203.445 31.4707 203.724 32.8028 203.737 34.1508V122.76C203.737 122.894 203.711 123.026 203.66 123.149C203.609 123.272 203.534 123.384 203.44 123.478C203.346 123.572 203.234 123.647 203.111 123.698C202.987 123.749 202.855 123.775 202.722 123.775V123.775ZM30.03 121.745H201.707V34.1508C201.694 33.0694 201.467 32.0012 201.041 31.0074C200.614 30.0137 199.995 29.1139 199.22 28.3596C198.445 27.6053 197.529 27.0113 196.524 26.6117C195.519 26.2121 194.445 26.0147 193.364 26.0308H38.3733C37.2919 26.0147 36.218 26.2121 35.213 26.6117C34.2081 27.0113 33.2918 27.6053 32.5168 28.3596C31.7417 29.1139 31.1231 30.0137 30.6964 31.0074C30.2697 32.0012 30.0432 33.0694 30.03 34.1508V121.745Z" fill="#33272A"/>
<path d="M171.694 5.97437H59.9827C57.777 5.97436 55.6616 6.84986 54.101 8.40853C52.5404 9.9672 51.6624 12.0816 51.6597 14.2872V93.579C51.6597 95.7864 52.5365 97.9034 54.0974 99.4643C55.6583 101.025 57.7753 101.902 59.9827 101.902H67.6967V115.929L78.7703 101.902H171.694C173.901 101.902 176.018 101.025 177.579 99.4643C179.14 97.9034 180.017 95.7864 180.017 93.579V14.3278C180.021 13.2323 179.808 12.1467 179.392 11.1334C178.975 10.1201 178.363 9.19896 177.59 8.42287C176.816 7.64678 175.897 7.031 174.886 6.61082C173.874 6.19065 172.789 5.97436 171.694 5.97437Z" fill="#FFFFFE"/>
<path d="M67.6966 116.944C67.5824 116.943 67.4691 116.922 67.3617 116.883C67.1636 116.814 66.9919 116.685 66.8701 116.514C66.7483 116.344 66.6825 116.139 66.6816 115.929V102.917H59.9827C57.5069 102.914 55.1333 101.93 53.3827 100.179C51.632 98.4284 50.6473 96.0548 50.6447 93.5791V14.3279C50.65 11.8538 51.6359 9.48285 53.3862 7.73441C55.1366 5.98597 57.5086 5.00268 59.9827 5H171.694C174.168 5 176.542 5.98243 178.293 7.73145C180.044 9.48047 181.029 11.853 181.032 14.3279V93.6196C181.029 96.0954 180.044 98.469 178.294 100.22C176.543 101.97 174.169 102.955 171.694 102.958H79.2676L68.4985 116.599C68.3989 116.713 68.2753 116.803 68.1366 116.862C67.9978 116.922 67.8476 116.95 67.6966 116.944ZM59.9827 6.9894C58.047 6.99208 56.1913 7.7615 54.8216 9.12924C53.452 10.497 52.68 12.3516 52.6747 14.2873V93.5791C52.6773 95.5164 53.4481 97.3737 54.8181 98.7436C56.188 100.114 58.0453 100.884 59.9827 100.887H67.6966C67.9658 100.887 68.224 100.994 68.4144 101.184C68.6047 101.375 68.7116 101.633 68.7116 101.902V113.006L77.9786 101.273C78.0731 101.153 78.1934 101.056 78.3304 100.99C78.4675 100.923 78.6178 100.888 78.7703 100.887H171.694C173.631 100.884 175.488 100.114 176.858 98.7436C178.228 97.3737 178.999 95.5164 179.002 93.5791V14.3279C178.996 12.3922 178.224 10.5376 176.855 9.16984C175.485 7.8021 173.629 7.03268 171.694 7.03L59.9827 6.9894Z" fill="#33272A"/>
<path d="M149.72 91.1855L155.887 84.6674L143.978 73.4024L137.812 79.9206L149.72 91.1855Z" fill="#FF8BA7"/>
<path d="M149.719 92.1886C149.459 92.1903 149.208 92.0922 149.018 91.9145L137.112 80.648C137.016 80.556 136.938 80.446 136.884 80.3241C136.83 80.2022 136.801 80.0708 136.798 79.9375C136.793 79.8036 136.815 79.6701 136.862 79.5447C136.909 79.4193 136.98 79.3044 137.072 79.2067L143.274 72.6904C143.464 72.5014 143.721 72.3953 143.989 72.3953C144.257 72.3953 144.515 72.5014 144.705 72.6904L156.611 83.9569C156.706 84.0513 156.781 84.1635 156.833 84.2872C156.884 84.4109 156.911 84.5436 156.911 84.6776C156.911 84.8116 156.884 84.9442 156.833 85.0679C156.781 85.1916 156.706 85.3039 156.611 85.3982L150.45 91.9145C150.352 92.0062 150.237 92.0776 150.112 92.1246C149.986 92.1716 149.853 92.1934 149.719 92.1886ZM139.214 79.8665L149.648 89.7424L154.418 84.6674L143.984 74.7915L139.214 79.8665Z" fill="#33272A"/>
<path d="M138.751 84.1259L148.217 74.12L136.308 62.855L126.843 72.8609L138.751 84.1259Z" fill="#FF8BA7"/>
<path d="M138.747 85.114C138.49 85.1131 138.244 85.0152 138.056 84.8399L126.151 73.5734C125.961 73.3833 125.855 73.126 125.855 72.8579C125.855 72.5897 125.961 72.3325 126.151 72.1423L135.61 62.1344C135.702 62.0379 135.812 61.9604 135.934 61.9064C136.056 61.8524 136.188 61.823 136.321 61.8197C136.455 61.8149 136.588 61.8367 136.714 61.8837C136.839 61.9308 136.954 62.0021 137.052 62.0938L148.958 73.3603C149.147 73.5505 149.253 73.8077 149.253 74.0759C149.253 74.344 149.147 74.6013 148.958 74.7915L139.488 84.7993C139.396 84.8959 139.286 84.9734 139.164 85.0273C139.042 85.0813 138.91 85.1108 138.777 85.114H138.747ZM128.282 72.802L138.706 82.6678L146.826 74.1317L136.392 64.2659L128.282 72.802Z" fill="#33272A"/>
<path d="M175.7 115.026L181.134 109.282C182.247 108.105 182.196 106.249 181.019 105.136L158.006 83.3659C156.829 82.2525 154.973 82.3041 153.859 83.481L148.426 89.2249C147.312 90.4018 147.364 92.2584 148.541 93.3717L171.554 115.141C172.73 116.255 174.587 116.203 175.7 115.026Z" fill="#FF8BA7"/>
<path d="M173.551 116.944C172.544 116.942 171.576 116.557 170.841 115.868L147.831 94.0866C147.454 93.7301 147.152 93.3029 146.94 92.8293C146.729 92.3558 146.613 91.8453 146.598 91.3269C146.584 90.8085 146.672 90.2924 146.858 89.808C147.043 89.3237 147.322 88.8806 147.679 88.5041L153.109 82.7693C153.464 82.3907 153.891 82.0863 154.365 81.8737C154.839 81.6611 155.351 81.5447 155.87 81.5311C156.915 81.506 157.928 81.8924 158.691 82.6069L181.701 104.389C182.078 104.744 182.382 105.17 182.594 105.642C182.806 106.114 182.923 106.624 182.938 107.141C182.953 107.659 182.866 108.174 182.682 108.658C182.498 109.142 182.22 109.585 181.864 109.961L176.423 115.706C176.069 116.086 175.642 116.391 175.168 116.603C174.694 116.816 174.182 116.932 173.663 116.944H173.551ZM155.981 83.5509H155.92C155.668 83.5562 155.42 83.612 155.19 83.7148C154.96 83.8177 154.753 83.9655 154.581 84.1497L149.15 89.8946C148.802 90.2649 148.615 90.7583 148.63 91.2665C148.645 91.7746 148.862 92.2559 149.232 92.6047L172.242 114.376C172.424 114.551 172.638 114.688 172.874 114.778C173.109 114.869 173.36 114.912 173.612 114.904C174.12 114.889 174.601 114.674 174.952 114.305L180.382 108.56C180.556 108.378 180.692 108.163 180.782 107.928C180.873 107.693 180.916 107.442 180.91 107.19C180.906 106.938 180.85 106.689 180.747 106.459C180.645 106.229 180.496 106.022 180.311 105.85L157.301 84.0787C156.944 83.7431 156.471 83.5578 155.981 83.5611V83.5509Z" fill="#33272A"/>
<path d="M137.833 29.1875C133.182 24.7856 127.329 21.862 121.016 20.7865C114.702 19.711 108.212 20.5319 102.365 23.1453C96.5185 25.7587 91.5781 30.0473 88.1689 35.4687C84.7596 40.89 83.0346 47.2007 83.2121 53.6024C83.3896 60.0042 85.4615 66.2096 89.1659 71.4337C92.8703 76.6579 98.0407 80.6662 104.023 82.9517C110.006 85.2372 116.532 85.6972 122.776 84.2736C129.02 82.85 134.701 79.6066 139.102 74.9538C142.024 71.8658 144.31 68.2323 145.828 64.2609C147.346 60.2894 148.066 56.0578 147.948 51.8078C147.831 47.5578 146.877 43.3726 145.141 39.4914C143.405 35.6101 140.922 32.1088 137.833 29.1875V29.1875Z" fill="#FF8BA7" stroke="#33272A" stroke-width="2.03" stroke-linecap="round" stroke-linejoin="round"/>
<path d="M137.843 52.705C137.85 57.9325 136.01 62.9942 132.647 66.9962C132.261 67.4675 131.851 67.9181 131.418 68.3462C129.348 70.44 126.883 72.1024 124.166 73.2369C121.449 74.3715 118.534 74.9556 115.589 74.9556C112.645 74.9556 109.73 74.3715 107.013 73.2369C104.296 72.1024 101.831 70.44 99.7605 68.3462C99.3277 67.9181 98.9177 67.4675 98.5324 66.9962C95.1727 62.9899 93.3313 57.9285 93.3313 52.6999C93.3313 47.4714 95.1727 42.4099 98.5324 38.4037C98.9177 37.9324 99.3277 37.4818 99.7605 37.0537C101.829 34.9604 104.292 33.2985 107.008 32.1643C109.723 31.03 112.636 30.4459 115.579 30.4459C118.522 30.4459 121.436 31.03 124.151 32.1643C126.866 33.2985 129.33 34.9604 131.398 37.0537C131.831 37.4818 132.241 37.9324 132.626 38.4037C136 42.405 137.848 47.4713 137.843 52.705V52.705Z" fill="white"/>
<path d="M115.594 75.9688C112.514 75.9801 109.463 75.3753 106.62 74.19C103.777 73.0047 101.2 71.2628 99.0398 69.0668C98.5867 68.615 98.1564 68.1407 97.7508 67.6458C94.2366 63.4564 92.3104 58.163 92.3104 52.6949C92.3104 47.2267 94.2366 41.9333 97.7508 37.7439C98.1466 37.2669 98.5831 36.7797 99.0297 36.3331C101.192 34.1447 103.768 32.4072 106.607 31.2214C109.446 30.0356 112.492 29.425 115.569 29.425C118.646 29.425 121.692 30.0356 124.531 31.2214C127.37 32.4072 129.946 34.1447 132.109 36.3331C132.555 36.7797 132.992 37.2567 133.398 37.7439C136.912 41.9333 138.838 47.2267 138.838 52.6949C138.838 58.163 136.912 63.4564 133.398 67.6458C132.996 68.1376 132.569 68.6085 132.119 69.0567C129.964 71.2513 127.392 72.9932 124.554 74.1802C121.717 75.3672 118.67 75.9753 115.594 75.9688ZM115.594 31.4611C112.784 31.4508 110 32.0031 107.406 33.0857C104.812 34.1682 102.461 35.7589 100.491 37.7642C100.084 38.1708 99.6981 38.5976 99.3342 39.0431C96.1219 42.8669 94.3609 47.7009 94.3609 52.6949C94.3609 57.6888 96.1219 62.5229 99.3342 66.3466C99.6992 66.7975 100.089 67.2279 100.501 67.6357C102.478 69.6332 104.831 71.2189 107.424 72.3012C110.017 73.3834 112.8 73.9406 115.61 73.9406C118.42 73.9406 121.202 73.3834 123.795 72.3012C126.389 71.2189 128.742 69.6332 130.718 67.6357C131.124 67.2297 131.51 66.8034 131.875 66.3568C135.087 62.533 136.848 57.699 136.848 52.705C136.848 47.711 135.087 42.877 131.875 39.0533C131.51 38.6067 131.114 38.1804 130.718 37.7744C128.747 35.7648 126.393 34.1708 123.795 33.0864C121.198 32.002 118.409 31.4494 115.594 31.4611V31.4611Z" fill="#33272A"/>
<path d="M115.594 75.9687C112.514 75.98 109.463 75.3752 106.62 74.1899C103.777 73.0046 101.2 71.2627 99.0398 69.0667C98.5867 68.6149 98.1564 68.1407 97.7508 67.6457C97.6649 67.5416 97.6006 67.4215 97.5617 67.2922C97.5229 67.163 97.5101 67.0273 97.5243 66.8931C97.5385 66.7589 97.5793 66.6289 97.6443 66.5106C97.7093 66.3924 97.7973 66.2883 97.903 66.2044C98.3192 65.8796 98.7353 65.5548 99.1819 65.1894C104.087 62.0738 109.778 60.4192 115.589 60.4192C121.401 60.4192 127.092 62.0738 131.997 65.1894C132.443 65.5041 132.86 65.8289 133.276 66.2044C133.382 66.2883 133.469 66.3924 133.535 66.5106C133.6 66.6289 133.64 66.7589 133.655 66.8931C133.669 67.0273 133.656 67.163 133.617 67.2922C133.578 67.4215 133.514 67.5416 133.428 67.6457C133.022 68.1407 132.592 68.6149 132.139 69.0667C129.981 71.262 127.405 73.0034 124.564 74.1888C121.723 75.3741 118.673 75.9792 115.594 75.9687V75.9687ZM100.014 67.1078L100.481 67.595C102.458 69.5925 104.811 71.1782 107.404 72.2605C109.997 73.3427 112.779 73.9 115.589 73.9C118.399 73.9 121.182 73.3427 123.775 72.2605C126.368 71.1782 128.721 69.5925 130.698 67.595L131.165 67.1078L130.819 66.854C126.259 63.9866 120.982 62.4653 115.594 62.4653C110.207 62.4653 104.93 63.9866 100.369 66.854L100.014 67.1078Z" fill="#33272A"/>
<path d="M115.594 44.9301C109.764 45.0391 104.037 43.3756 99.1718 40.1596C98.7354 39.8551 98.309 39.5303 97.8929 39.1446C97.6883 38.9728 97.5597 38.7272 97.535 38.4612C97.5103 38.1952 97.5915 37.9302 97.761 37.7236C98.167 37.2364 98.6034 36.7086 99.05 36.3026C101.213 34.1142 103.788 32.3768 106.627 31.191C109.466 30.0052 112.513 29.3946 115.589 29.3946C118.666 29.3946 121.712 30.0052 124.551 31.191C127.391 32.3768 129.966 34.1142 132.129 36.3026C132.575 36.7492 133.012 37.2263 133.418 37.7135C133.587 37.92 133.669 38.185 133.644 38.4511C133.619 38.7171 133.491 38.9626 133.286 39.1345C132.87 39.4796 132.443 39.8145 132.007 40.1495C127.146 43.3676 121.423 45.0346 115.594 44.9301V44.9301ZM100.014 38.2616L100.339 38.495C104.905 41.3727 110.192 42.8998 115.589 42.8998C120.987 42.8998 126.274 41.3727 130.84 38.495L131.165 38.2616L130.698 37.7744C128.723 35.7759 126.371 34.1893 123.778 33.1064C121.186 32.0236 118.404 31.466 115.594 31.466C112.785 31.466 110.003 32.0236 107.411 33.1064C104.818 34.1893 102.466 35.7759 100.491 37.7744L100.014 38.2616Z" fill="#33272A"/>
<path d="M115.584 75.9789C107.86 75.9789 101.821 65.7477 101.821 52.705C101.821 39.6622 107.911 29.431 115.584 29.431C123.258 29.431 129.358 39.8754 129.358 52.705C129.358 65.7477 123.309 75.9789 115.584 75.9789ZM115.584 31.461C109.109 31.461 103.851 40.9919 103.851 52.705C103.851 64.4181 109.109 73.9489 115.584 73.9489C122.06 73.9489 127.328 64.4181 127.328 52.705C127.328 40.9919 122.06 31.461 115.584 31.461V31.461Z" fill="#33272A"/>
<path d="M137.833 53.72H93.3356C93.0664 53.72 92.8082 53.6131 92.6178 53.4227C92.4275 53.2324 92.3206 52.9742 92.3206 52.705C92.3206 52.4358 92.4275 52.1776 92.6178 51.9873C92.8082 51.7969 93.0664 51.69 93.3356 51.69H137.833C138.102 51.69 138.361 51.7969 138.551 51.9873C138.741 52.1776 138.848 52.4358 138.848 52.705C138.848 52.9742 138.741 53.2324 138.551 53.4227C138.361 53.6131 138.102 53.72 137.833 53.72V53.72Z" fill="#33272A"/>
<path d="M115.584 75.9789C115.315 75.9789 115.057 75.872 114.867 75.6817C114.676 75.4913 114.569 75.2331 114.569 74.9639V30.446C114.569 30.1768 114.676 29.9187 114.867 29.7283C115.057 29.538 115.315 29.431 115.584 29.431C115.854 29.431 116.112 29.538 116.302 29.7283C116.492 29.9187 116.599 30.1768 116.599 30.446V74.9639C116.599 75.2331 116.492 75.4913 116.302 75.6817C116.112 75.872 115.854 75.9789 115.584 75.9789Z" fill="#33272A"/>
<path d="M98.0248 17.8296H67.6966C67.4274 17.8296 67.1693 17.7227 66.9789 17.5323C66.7886 17.342 66.6816 17.0838 66.6816 16.8146C66.6816 16.5454 66.7886 16.2873 66.9789 16.0969C67.1693 15.9066 67.4274 15.7996 67.6966 15.7996H98.0248C98.294 15.7996 98.5522 15.9066 98.7426 16.0969C98.9329 16.2873 99.0398 16.5454 99.0398 16.8146C99.0398 17.0838 98.9329 17.342 98.7426 17.5323C98.5522 17.7227 98.294 17.8296 98.0248 17.8296Z" fill="#C3F0CA"/>
<path d="M76.2835 31.461H67.7474C67.4782 31.461 67.22 31.3541 67.0297 31.1637C66.8393 30.9734 66.7324 30.7152 66.7324 30.446C66.7324 30.1768 66.8393 29.9187 67.0297 29.7283C67.22 29.538 67.4782 29.431 67.7474 29.431H76.2835C76.5527 29.431 76.8109 29.538 77.0013 29.7283C77.1916 29.9187 77.2985 30.1768 77.2985 30.446C77.2985 30.7152 77.1916 30.9734 77.0013 31.1637C76.8109 31.3541 76.5527 31.461 76.2835 31.461Z" fill="#C3F0CA"/>
<path d="M88.0068 89.6206H67.7068C67.4376 89.6206 67.1794 89.5136 66.9891 89.3233C66.7987 89.1329 66.6918 88.8748 66.6918 88.6056C66.6918 88.3364 66.7987 88.0782 66.9891 87.8879C67.1794 87.6975 67.4376 87.5906 67.7068 87.5906H88.0068C88.276 87.5906 88.5342 87.6975 88.7245 87.8879C88.9149 88.0782 89.0218 88.3364 89.0218 88.6056C89.0218 88.8748 88.9149 89.1329 88.7245 89.3233C88.5342 89.5136 88.276 89.6206 88.0068 89.6206Z" fill="#C3F0CA"/>
<path d="M166.913 19.89H144.289C144.019 19.89 143.761 19.7831 143.571 19.5928C143.38 19.4024 143.274 19.1442 143.274 18.875C143.274 18.6059 143.38 18.3477 143.571 18.1573C143.761 17.967 144.019 17.86 144.289 17.86H166.954C167.223 17.86 167.481 17.967 167.671 18.1573C167.862 18.3477 167.969 18.6059 167.969 18.875C167.969 19.1442 167.862 19.4024 167.671 19.5928C167.481 19.7831 167.223 19.89 166.954 19.89H166.913Z" fill="#C3F0CA"/>
<path d="M164.771 30.1923H153.078C152.809 30.1923 152.551 30.0854 152.361 29.895C152.17 29.7047 152.063 29.4465 152.063 29.1773C152.063 28.9081 152.17 28.6499 152.361 28.4596C152.551 28.2692 152.809 28.1623 153.078 28.1623H164.771C165.04 28.1623 165.299 28.2692 165.489 28.4596C165.679 28.6499 165.786 28.9081 165.786 29.1773C165.786 29.4465 165.679 29.7047 165.489 29.895C165.299 30.0854 165.04 30.1923 164.771 30.1923Z" fill="#C3F0CA"/>
<path d="M164.771 40.4945H153.078C152.809 40.4945 152.551 40.3876 152.361 40.1973C152.17 40.0069 152.063 39.7487 152.063 39.4795C152.063 39.2103 152.17 38.9522 152.361 38.7618C152.551 38.5715 152.809 38.4645 153.078 38.4645H164.771C165.04 38.4645 165.299 38.5715 165.489 38.7618C165.679 38.9522 165.786 39.2103 165.786 39.4795C165.786 39.7487 165.679 40.0069 165.489 40.1973C165.299 40.3876 165.04 40.4945 164.771 40.4945Z" fill="#C3F0CA"/>
<path d="M73.878 65.5245H67.6966C67.4274 65.5245 67.1693 65.4176 66.9789 65.2272C66.7886 65.0369 66.6816 64.7787 66.6816 64.5095C66.6816 64.2403 66.7886 63.9821 66.9789 63.7918C67.1693 63.6014 67.4274 63.4945 67.6966 63.4945H73.878C74.1472 63.4945 74.4054 63.6014 74.5957 63.7918C74.7861 63.9821 74.893 64.2403 74.893 64.5095C74.893 64.7787 74.7861 65.0369 74.5957 65.2272C74.4054 65.4176 74.1472 65.5245 73.878 65.5245Z" fill="#C3F0CA"/>
<path d="M159.442 173.916H72.2844C72.0152 173.916 71.7571 173.809 71.5667 173.619C71.3764 173.429 71.2694 173.17 71.2694 172.901C71.2694 172.632 71.3764 172.374 71.5667 172.184C71.7571 171.993 72.0152 171.886 72.2844 171.886H159.442C159.712 171.886 159.97 171.993 160.16 172.184C160.351 172.374 160.457 172.632 160.457 172.901C160.457 173.17 160.351 173.429 160.16 173.619C159.97 173.809 159.712 173.916 159.442 173.916Z" fill="#33272A"/>
</svg>
