<svg width="108" height="113" viewBox="0 0 108 113" fill="none" xmlns="http://www.w3.org/2000/svg">
<rect x="1.5" y="1.5" width="105" height="110" rx="8.5" fill="#FFFFFE" stroke="#33272A" stroke-width="3"/>
<path d="M41.744 35.6C45.152 35.6 47.744 36.312 49.52 37.736C51.312 39.16 52.208 41.272 52.208 44.072C52.208 45.864 51.84 47.376 51.104 48.608C50.384 49.824 49.456 50.76 48.32 51.416C47.2 52.056 46.048 52.408 44.864 52.472C46.144 52.504 47.408 52.808 48.656 53.384C49.904 53.944 50.936 54.856 51.752 56.12C52.584 57.368 53 59.04 53 61.136C53 64.176 52.08 66.584 50.24 68.36C48.416 70.12 45.528 71 41.576 71H29.24V35.6H41.744ZM40.448 39.92H34.256V50.48H39.704C42.04 50.48 43.84 50 45.104 49.04C46.368 48.08 47 46.704 47 44.912C47 43.104 46.408 41.824 45.224 41.072C44.056 40.304 42.464 39.92 40.448 39.92ZM40.568 66.68C42.808 66.68 44.552 66.184 45.8 65.192C47.064 64.184 47.696 62.736 47.696 60.848C47.696 59.344 47.344 58.152 46.64 57.272C45.952 56.376 45.024 55.736 43.856 55.352C42.688 54.968 41.4 54.776 39.992 54.776H34.256V66.68H40.568ZM75.5919 71L69.0399 61.832L62.2959 71H56.7279L66.3759 58.472L57.0879 45.512H62.7759L69.2319 54.656L75.5439 45.512H81.1359L72.0639 57.992L81.2799 71H75.5919Z" fill="#33272A"/>
</svg>
