<svg width="108" height="113" viewBox="0 0 108 113" fill="none" xmlns="http://www.w3.org/2000/svg">
<rect x="1.5" y="1.5" width="105" height="110" rx="8.5" fill="#FFFFFE" stroke="#33272A" stroke-width="3"/>
<path d="M40.848 71.504C38.144 71.504 35.688 70.792 33.48 69.368C31.288 67.944 29.536 65.88 28.224 63.176C26.928 60.472 26.28 57.2 26.28 53.36C26.28 49.52 26.944 46.24 28.272 43.52C29.616 40.8 31.424 38.728 33.696 37.304C35.984 35.864 38.544 35.144 41.376 35.144C43.68 35.144 45.64 35.536 47.256 36.32C48.888 37.104 50.208 38.112 51.216 39.344C52.224 40.576 52.96 41.88 53.424 43.256C53.888 44.632 54.12 45.912 54.12 47.096V47.384H49.056V47.096C49.056 45.896 48.776 44.728 48.216 43.592C47.672 42.44 46.824 41.496 45.672 40.76C44.536 40.008 43.104 39.632 41.376 39.632C39.6 39.632 37.968 40.12 36.48 41.096C34.992 42.056 33.792 43.552 32.88 45.584C31.984 47.6 31.536 50.192 31.536 53.36C31.536 56.576 31.968 59.192 32.832 61.208C33.712 63.224 34.872 64.704 36.312 65.648C37.768 66.592 39.368 67.064 41.112 67.064C42.856 67.064 44.304 66.76 45.456 66.152C46.608 65.544 47.496 64.8 48.12 63.92C48.744 63.024 49.152 62.136 49.344 61.256V58.016H41.232V53.936H54.024V71H50.688L50.304 67.064C50.144 67.416 49.728 67.952 49.056 68.672C48.384 69.376 47.384 70.024 46.056 70.616C44.728 71.208 42.992 71.504 40.848 71.504ZM62.007 81.848C61.319 81.848 60.695 81.808 60.135 81.728C59.575 81.664 59.223 81.6 59.079 81.536V77.288C59.287 77.384 59.631 77.464 60.111 77.528C60.607 77.592 61.119 77.624 61.647 77.624C63.055 77.624 64.175 77.2 65.007 76.352C65.855 75.504 66.503 74.432 66.951 73.136L67.599 71.216L58.815 45.512H64.239L70.455 66.008L76.503 45.512H81.855L72.711 72.872C72.151 74.584 71.463 76.112 70.647 77.456C69.831 78.816 68.743 79.888 67.383 80.672C66.023 81.456 64.231 81.848 62.007 81.848Z" fill="#33272A"/>
</svg>
