<svg width="108" height="113" viewBox="0 0 108 113" fill="none" xmlns="http://www.w3.org/2000/svg">
<rect x="1.5" y="1.5" width="105" height="110" rx="8.5" fill="#FFFFFE" stroke="#33272A" stroke-width="3"/>
<path d="M53.488 35.6V71H48.28V55.52H33.448V71H28.24V35.6H33.448V51.176H48.28V35.6H53.488ZM72.5024 71.504C69.9264 71.504 67.6304 70.968 65.6144 69.896C63.5984 68.808 62.0064 67.272 60.8384 65.288C59.6864 63.288 59.1104 60.928 59.1104 58.208C59.1104 55.504 59.6864 53.176 60.8384 51.224C62.0064 49.256 63.5984 47.744 65.6144 46.688C67.6304 45.632 69.9264 45.104 72.5024 45.104C75.0784 45.104 77.2704 45.608 79.0784 46.616C80.8864 47.608 82.2704 48.856 83.2304 50.36C84.1904 51.864 84.6704 53.384 84.6704 54.92V55.088H79.5104C79.5104 55.008 79.5024 54.92 79.4864 54.824C79.4704 54.712 79.4544 54.608 79.4384 54.512C79.2304 53.104 78.5104 51.936 77.2784 51.008C76.0464 50.064 74.4384 49.592 72.4544 49.592C70.9824 49.592 69.6384 49.912 68.4224 50.552C67.2064 51.176 66.2304 52.128 65.4944 53.408C64.7584 54.688 64.3904 56.288 64.3904 58.208C64.3904 60.128 64.7504 61.744 65.4704 63.056C66.2064 64.352 67.1824 65.336 68.3984 66.008C69.6304 66.68 70.9824 67.016 72.4544 67.016C74.8224 67.016 76.5584 66.48 77.6624 65.408C78.7824 64.336 79.3984 63.08 79.5104 61.64H84.6704C84.6704 63.192 84.2064 64.728 83.2784 66.248C82.3504 67.768 80.9824 69.024 79.1744 70.016C77.3664 71.008 75.1424 71.504 72.5024 71.504Z" fill="#33272A"/>
</svg>
