<svg width="108" height="113" viewBox="0 0 108 113" fill="none" xmlns="http://www.w3.org/2000/svg">
<rect x="1.5" y="1.5" width="105" height="110" rx="8.5" fill="#FFFFFE" stroke="#33272A" stroke-width="3"/>
<path d="M52.488 35.6V71H47.28V55.52H32.448V71H27.24V35.6H32.448V51.176H47.28V35.6H52.488ZM69.7024 71.504C67.6064 71.504 65.6784 71 63.9184 69.992C62.1584 68.968 60.7504 67.472 59.6944 65.504C58.6384 63.52 58.1104 61.088 58.1104 58.208C58.1104 55.408 58.6464 53.032 59.7184 51.08C60.7904 49.128 62.2064 47.648 63.9664 46.64C65.7264 45.616 67.6384 45.104 69.7024 45.104C71.2864 45.104 72.7824 45.416 74.1904 46.04C75.6144 46.648 76.8464 47.512 77.8864 48.632V33.488H83.1184V71H77.8864V67.88C76.8784 69 75.6704 69.888 74.2624 70.544C72.8544 71.184 71.3344 71.504 69.7024 71.504ZM70.7344 66.776C72.0144 66.776 73.1984 66.472 74.2864 65.864C75.3744 65.24 76.2464 64.392 76.9024 63.32C77.5584 62.248 77.8864 61.024 77.8864 59.648V56.552C77.8864 55.24 77.5424 54.064 76.8544 53.024C76.1824 51.984 75.3024 51.168 74.2144 50.576C73.1264 49.968 71.9664 49.664 70.7344 49.664C68.6704 49.664 66.9424 50.36 65.5504 51.752C64.1584 53.128 63.4624 55.28 63.4624 58.208C63.4624 61.12 64.1584 63.28 65.5504 64.688C66.9584 66.08 68.6864 66.776 70.7344 66.776Z" fill="#33272A"/>
</svg>
