<svg width="108" height="113" viewBox="0 0 108 113" fill="none" xmlns="http://www.w3.org/2000/svg">
<rect x="1.5" y="1.5" width="105" height="110" rx="8.5" fill="#FFFFFE" stroke="#33272A" stroke-width="3"/>
<path d="M30.304 71H25.24V35.6H33.544L46.888 67.064V35.6H51.976V71H43.552L30.304 39.752V71ZM69.2024 71.504C67.1064 71.504 65.1784 71 63.4184 69.992C61.6584 68.968 60.2504 67.472 59.1944 65.504C58.1384 63.52 57.6104 61.088 57.6104 58.208C57.6104 55.408 58.1464 53.032 59.2184 51.08C60.2904 49.128 61.7064 47.648 63.4664 46.64C65.2264 45.616 67.1384 45.104 69.2024 45.104C70.7864 45.104 72.2824 45.416 73.6904 46.04C75.1144 46.648 76.3464 47.512 77.3864 48.632V33.488H82.6184V71H77.3864V67.88C76.3784 69 75.1704 69.888 73.7624 70.544C72.3544 71.184 70.8344 71.504 69.2024 71.504ZM70.2344 66.776C71.5144 66.776 72.6984 66.472 73.7864 65.864C74.8744 65.24 75.7464 64.392 76.4024 63.32C77.0584 62.248 77.3864 61.024 77.3864 59.648V56.552C77.3864 55.24 77.0424 54.064 76.3544 53.024C75.6824 51.984 74.8024 51.168 73.7144 50.576C72.6264 49.968 71.4664 49.664 70.2344 49.664C68.1704 49.664 66.4424 50.36 65.0504 51.752C63.6584 53.128 62.9624 55.28 62.9624 58.208C62.9624 61.12 63.6584 63.28 65.0504 64.688C66.4584 66.08 68.1864 66.776 70.2344 66.776Z" fill="#33272A"/>
</svg>
