<svg width="108" height="113" viewBox="0 0 108 113" fill="none" xmlns="http://www.w3.org/2000/svg">
<rect x="1.5" y="1.5" width="105" height="110" rx="8.5" fill="#FFFFFE" stroke="#33272A" stroke-width="3"/>
<path d="M39.376 71.504C35.648 71.504 32.696 70.616 30.52 68.84C28.36 67.064 27.28 64.4 27.28 60.848V59.288H32.488V60.752C32.488 62.928 33.072 64.528 34.24 65.552C35.408 66.56 37.112 67.064 39.352 67.064C41.656 67.064 43.4 66.68 44.584 65.912C45.784 65.128 46.384 63.872 46.384 62.144C46.384 60.912 46.008 59.88 45.256 59.048C44.52 58.2 43.496 57.472 42.184 56.864C40.888 56.256 39.392 55.688 37.696 55.16C35.776 54.568 34.048 53.816 32.512 52.904C30.976 51.976 29.76 50.824 28.864 49.448C27.968 48.056 27.52 46.36 27.52 44.36C27.52 42.392 28.016 40.72 29.008 39.344C30 37.968 31.376 36.928 33.136 36.224C34.896 35.504 36.912 35.144 39.184 35.144C42.8 35.144 45.704 35.984 47.896 37.664C50.104 39.344 51.208 41.88 51.208 45.272V46.952H45.976V45.488C45.976 43.424 45.408 41.928 44.272 41C43.152 40.056 41.488 39.584 39.28 39.584C37.136 39.584 35.48 39.968 34.312 40.736C33.16 41.488 32.584 42.696 32.584 44.36C32.584 45.608 32.952 46.648 33.688 47.48C34.44 48.312 35.464 49.032 36.76 49.64C38.072 50.232 39.56 50.8 41.224 51.344C43.336 52.048 45.152 52.84 46.672 53.72C48.208 54.6 49.392 55.696 50.224 57.008C51.056 58.32 51.472 59.976 51.472 61.976C51.472 65 50.376 67.344 48.184 69.008C46.008 70.672 43.072 71.504 39.376 71.504ZM65.9744 71.504C63.0944 71.504 60.7664 70.832 58.9904 69.488C57.2304 68.144 56.3504 66.272 56.3504 63.872C56.3504 62.16 56.7984 60.744 57.6944 59.624C58.6064 58.504 59.8544 57.64 61.4384 57.032C63.0384 56.408 64.8544 56 66.8864 55.808C69.8944 55.504 72.0224 55.208 73.2704 54.92C74.5184 54.632 75.1424 54.16 75.1424 53.504V53.456C75.1424 52.16 74.5904 51.176 73.4864 50.504C72.3824 49.832 70.8064 49.496 68.7584 49.496C66.5984 49.496 64.9264 49.88 63.7424 50.648C62.5744 51.4 61.9904 52.6 61.9904 54.248H56.8784C56.8784 52.296 57.3824 50.64 58.3904 49.28C59.4144 47.92 60.8224 46.888 62.6144 46.184C64.4064 45.464 66.4624 45.104 68.7824 45.104C70.9104 45.104 72.8464 45.432 74.5904 46.088C76.3504 46.728 77.7504 47.688 78.7904 48.968C79.8304 50.248 80.3504 51.84 80.3504 53.744V65.912C80.3504 66.504 80.3664 67.08 80.3984 67.64C80.4464 68.184 80.5424 68.672 80.6864 69.104C80.8304 69.6 80.9984 70.016 81.1904 70.352C81.3984 70.672 81.5664 70.888 81.6944 71H76.5104C76.4144 70.904 76.2704 70.704 76.0784 70.4C75.9024 70.08 75.7424 69.712 75.5984 69.296C75.4704 68.944 75.3744 68.544 75.3104 68.096C74.3984 69.136 73.1344 69.968 71.5184 70.592C69.9184 71.2 68.0704 71.504 65.9744 71.504ZM67.0544 67.184C68.5424 67.184 69.9024 66.952 71.1344 66.488C72.3664 66.008 73.3424 65.288 74.0624 64.328C74.7984 63.352 75.1664 62.128 75.1664 60.656V58.448C74.1744 58.736 73.0624 58.976 71.8304 59.168C70.5984 59.344 69.3424 59.496 68.0624 59.624C65.9024 59.832 64.2784 60.208 63.1904 60.752C62.1024 61.296 61.5584 62.208 61.5584 63.488C61.5584 65.952 63.3904 67.184 67.0544 67.184Z" fill="#33272A"/>
</svg>
