<svg width="108" height="113" viewBox="0 0 108 113" fill="none" xmlns="http://www.w3.org/2000/svg">
<rect x="1.5" y="1.5" width="105" height="110" rx="8.5" fill="#FFFFFE" stroke="#33272A" stroke-width="3"/>
<path d="M35.016 71.144L25.68 35.6H31.416L38.856 66.824L46.2 35.6H51.96L42.72 71.144H35.016ZM67.6586 71.504C65.0826 71.504 62.7866 70.968 60.7706 69.896C58.7546 68.808 57.1626 67.272 55.9946 65.288C54.8426 63.288 54.2666 60.928 54.2666 58.208C54.2666 55.504 54.8426 53.176 55.9946 51.224C57.1626 49.256 58.7546 47.744 60.7706 46.688C62.7866 45.632 65.0826 45.104 67.6586 45.104C70.2346 45.104 72.4266 45.608 74.2346 46.616C76.0426 47.608 77.4266 48.856 78.3866 50.36C79.3466 51.864 79.8266 53.384 79.8266 54.92V55.088H74.6666C74.6666 55.008 74.6586 54.92 74.6426 54.824C74.6266 54.712 74.6106 54.608 74.5946 54.512C74.3866 53.104 73.6666 51.936 72.4346 51.008C71.2026 50.064 69.5946 49.592 67.6106 49.592C66.1386 49.592 64.7946 49.912 63.5786 50.552C62.3626 51.176 61.3866 52.128 60.6506 53.408C59.9146 54.688 59.5466 56.288 59.5466 58.208C59.5466 60.128 59.9066 61.744 60.6266 63.056C61.3626 64.352 62.3386 65.336 63.5546 66.008C64.7866 66.68 66.1386 67.016 67.6106 67.016C69.9786 67.016 71.7146 66.48 72.8186 65.408C73.9386 64.336 74.5546 63.08 74.6666 61.64H79.8266C79.8266 63.192 79.3626 64.728 78.4346 66.248C77.5066 67.768 76.1386 69.024 74.3306 70.016C72.5226 71.008 70.2986 71.504 67.6586 71.504Z" fill="#33272A"/>
</svg>
